HIERARCHY
ROOT Hips
{
	OFFSET 0.000000 0.000000 0.000000
	CHANNELS 6 Xposition Yposition Zposition Zrotation Yrotation Xrotation 
	JOINT LowerBack
	{
		OFFSET 0.000000 0.000000 0.000000
		CHANNELS 3 Zrotation Yrotation Xrotation
		JOINT Spine
		{
			OFFSET 0.028270 2.035590 -0.193380
			CHANNELS 3 Zrotation Yrotation Xrotation
			JOINT Spine1
			{
				OFFSET 0.056720 2.048850 -0.042750
				CHANNELS 3 Zrotation Yrotation Xrotation
				JOINT Neck
				{
					OFFSET 0.000000 0.000000 0.000000
					CHANNELS 3 Zrotation Yrotation Xrotation
					JOINT Neck1
					{
						OFFSET -0.054170 1.746240 0.172020
						CHANNELS 3 Zrotation Yrotation Xrotation
						JOINT Head
						{
							OFFSET 0.104070 1.761360 -0.123970
							CHANNELS 3 Zrotation Yrotation Xrotation
							End Site
							{
								OFFSET 0.000000 0.000000 0.000000
							}
						}
					}
				}
				JOINT LeftShoulder
				{
					OFFSET 0.000000 0.000000 0.000000
					CHANNELS 3 Zrotation Yrotation Xrotation
					JOINT LeftArm
					{
						OFFSET 3.362410 1.200890 -0.311210
						CHANNELS 3 Zrotation Yrotation Xrotation
						JOINT LeftForeArm
						{
							OFFSET 4.983000 -0.000000 -0.000000
							CHANNELS 3 Zrotation Yrotation Xrotation
							JOINT LeftHand
							{
								OFFSET 3.483560 -0.000000 -0.000000
								CHANNELS 3 Zrotation Yrotation Xrotation
								JOINT LeftFingerBase
								{
									OFFSET 0.000000 0.000000 0.000000
									CHANNELS 3 Zrotation Yrotation Xrotation
									JOINT LeftHandIndex1
									{
										OFFSET 0.715260 -0.000000 -0.000000
										CHANNELS 3 Zrotation Yrotation Xrotation
										End Site
										{
											OFFSET 0.000000 0.000000 0.000000
										}
									}
								}
								JOINT LThumb
								{
									OFFSET 0.000000 0.000000 0.000000
									CHANNELS 3 Zrotation Yrotation Xrotation
									End Site
									{
										OFFSET 0.000000 0.000000 0.000000
									}
								}
							}
						}
					}
				}
				JOINT RightShoulder
				{
					OFFSET 0.000000 0.000000 0.000000
					CHANNELS 3 Zrotation Yrotation Xrotation
					JOINT RightArm
					{
						OFFSET -3.136600 1.374050 -0.404650
						CHANNELS 3 Zrotation Yrotation Xrotation
						JOINT RightForeArm
						{
							OFFSET -5.241900 -0.000000 -0.000000
							CHANNELS 3 Zrotation Yrotation Xrotation
							JOINT RightHand
							{
								OFFSET -3.444170 -0.000000 -0.000000
								CHANNELS 3 Zrotation Yrotation Xrotation
								JOINT RightFingerBase
								{
									OFFSET 0.000000 0.000000 0.000000
									CHANNELS 3 Zrotation Yrotation Xrotation
									JOINT RightHandIndex1
									{
										OFFSET -0.622530 -0.000000 -0.000000
										CHANNELS 3 Zrotation Yrotation Xrotation
										End Site
										{
											OFFSET 0.000000 0.000000 0.000000
										}
									}
								}
								JOINT RThumb
								{
									OFFSET 0.000000 0.000000 0.000000
									CHANNELS 3 Zrotation Yrotation Xrotation
									End Site
									{
										OFFSET 0.000000 0.000000 0.000000
									}
								}
							}
						}
					}
				}
			}
		}
	}
}
}
MOTION
Frames: 15
Frame Time: 0.008333
1.212719 16.465646 -1.638040 -163.944813 86.615726 -144.817215 8.601582 -2.760663 1.774379 0.428113 -3.333358 -2.046715 -8.846012 -3.218946 2.117062 10.305221 -7.536090 -6.742356 -4.837795 -0.362713 0.081847 0.000000 0.000000 0.000000 -0.282547 8.932809 2.671979 -25.993152 -15.622535 4.114301 -0.680651 -79.686332 0.047571 -12.739556 0.006235 0.023487 0.081857 0.214068 0.000000 0.000000 0.000000 0.000000 0.000000 0.000000 0.000000 22.607123 -6.643592 0.799268 71.680977 -8.223614 -16.180535 3.759146 18.456073 0.013674 3.833559 8.157197 0.271790 0.060156 -0.066019 -0.000000 0.000000 0.000000 0.000000 0.000000 0.000000 0.000000 
1.421789 16.469114 -1.665388 -159.856966 86.192943 -140.819948 9.257277 -2.662212 1.957232 0.553470 -3.262802 -2.043547 -8.827868 -3.154964 2.053245 10.246403 -7.129477 -6.602576 -4.876669 -0.365672 0.115283 0.000000 0.000000 0.000000 -0.518406 8.988203 2.665704 -26.888783 -15.276075 4.419605 -0.700978 -79.735737 0.047159 -12.706427 -0.037136 0.028221 0.076269 0.212701 0.000000 0.000000 0.000000 0.000000 0.000000 0.000000 0.000000 22.574742 -6.219715 0.813123 71.215303 -7.431803 -16.078669 3.771975 18.137847 0.013581 3.777889 8.177061 0.268488 0.059883 -0.065860 -0.000000 0.000000 0.000000 0.000000 0.000000 0.000000 0.000000 
1.626894 16.477244 -1.690274 -157.464627 85.657494 -138.528310 9.857139 -2.582156 2.142502 0.671087 -3.205527 -2.038999 -8.806045 -3.105052 1.986736 10.217126 -6.705699 -6.442233 -4.912242 -0.368452 0.154266 0.000000 0.000000 0.000000 -0.701388 8.984246 2.662110 -27.875812 -14.921394 4.840869 -0.726512 -79.707844 0.046695 -12.686980 -0.076353 0.032357 0.070901 0.210787 0.000000 0.000000 0.000000 0.000000 0.000000 0.000000 0.000000 22.555711 -5.796945 0.827629 70.762120 -6.574394 -15.967873 3.780296 17.787518 0.013450 3.712880 8.192536 0.264287 0.059466 -0.065692 -0.000000 0.000000 0.000000 0.000000 0.000000 0.000000 0.000000 
1.828278 16.489723 -1.712866 -156.236535 85.044568 -137.403163 10.402625 -2.512107 2.319816 0.778907 -3.154607 -2.034966 -8.783294 -3.061932 1.919224 10.208714 -6.266167 -6.265622 -4.943525 -0.370953 0.197869 0.000000 0.000000 0.000000 -0.868507 8.940221 2.662609 -28.889348 -14.578917 5.388679 -0.757221 -79.601954 0.046122 -12.676025 -0.106302 0.035394 0.065646 0.208138 0.000000 0.000000 0.000000 0.000000 0.000000 0.000000 0.000000 22.540242 -5.370906 0.842821 70.330066 -5.659630 -15.881801 3.785564 17.411575 0.013296 3.652530 8.197320 0.260084 0.058905 -0.065615 -0.000000 0.000000 0.000000 0.000000 0.000000 0.000000 0.000000 
2.025990 16.506171 -1.731986 -156.113521 84.382910 -137.382131 10.847492 -2.451696 2.483099 0.867233 -3.107905 -2.032013 -8.758465 -3.023339 1.851673 10.228044 -5.827711 -6.077340 -4.970599 -0.373194 0.245103 0.000000 0.000000 0.000000 -0.980516 8.841216 2.665184 -29.960014 -14.227643 6.056332 -0.793863 -79.401858 0.045439 -12.687646 -0.125073 0.037134 0.060822 0.204567 -0.000000 0.000000 0.000000 0.000000 0.000000 0.000000 0.000000 22.542919 -4.956691 0.859359 69.915201 -4.689274 -15.774600 3.786669 17.018885 0.013137 3.582923 8.202201 0.255281 0.058287 -0.065742 -0.000000 0.000000 0.000000 0.000000 0.000000 0.000000 0.000000 
2.220471 16.526548 -1.748494 -156.705582 83.682437 -138.064178 11.205364 -2.397144 2.619334 0.938364 -3.063649 -2.033670 -8.733136 -2.987471 1.782107 10.259215 -5.381128 -5.877657 -4.993401 -0.375196 0.296083 0.000000 0.000000 0.000000 -1.082131 8.692827 2.673762 -31.029604 -13.866040 6.844143 -0.836116 -79.118282 0.044596 -12.714913 -0.127834 0.037073 0.056157 0.199904 -0.000000 0.000000 0.000000 0.000000 0.000000 0.000000 0.000000 22.546460 -4.540430 0.878056 69.524581 -3.687150 -15.693973 3.785175 16.629130 0.012984 3.525109 8.199105 0.251079 0.057562 -0.066145 -0.000000 0.000000 0.000000 0.000000 0.000000 0.000000 0.000000 
2.411916 16.550771 -1.762280 -157.930257 82.954531 -139.361304 11.454181 -2.348761 2.723890 0.988489 -3.021390 -2.039970 -8.705476 -2.953696 1.713467 10.300816 -4.941062 -5.674050 -5.011684 -0.376923 0.348829 0.000000 0.000000 0.000000 -1.159735 8.501220 2.687345 -32.116023 -13.502828 7.741469 -0.885833 -78.728267 0.043593 -12.765674 -0.114100 0.035012 0.051706 0.194132 0.000000 0.000000 0.000000 0.000000 0.000000 0.000000 0.000000 22.554525 -4.134516 0.898321 69.149843 -2.652633 -15.593837 3.780880 16.256273 0.012855 3.468381 8.199154 0.247076 0.056824 -0.066903 -0.000000 0.000000 0.000000 0.000000 0.000000 0.000000 0.000000 
2.600621 16.578937 -1.774165 -159.595141 82.202432 -141.071305 11.600783 -2.304684 2.789193 1.019439 -2.980204 -2.052927 -8.674630 -2.921112 1.644874 10.341130 -4.505445 -5.468833 -5.025405 -0.378390 0.402744 0.000000 0.000000 0.000000 -1.233278 8.270961 2.707684 -33.204675 -13.137151 8.736260 -0.943888 -78.228515 0.042417 -12.838316 -0.082685 0.030954 0.047281 0.187241 0.000000 0.000000 0.000000 0.000000 0.000000 0.000000 0.000000 22.555231 -3.733225 0.920487 68.789020 -1.603020 -15.475928 3.774713 15.923314 0.012763 3.420848 8.202806 0.243775 0.056085 -0.068058 -0.000000 0.000000 0.000000 0.000000 0.000000 0.000000 0.000000 
2.786789 16.611153 -1.784978 -161.562711 81.429613 -143.050048 11.650191 -2.263031 2.812280 1.032779 -2.938664 -2.073429 -8.638854 -2.888315 1.576025 10.370460 -4.074602 -5.264868 -5.034374 -0.379592 0.457000 0.000000 0.000000 0.000000 -1.314010 8.008764 2.735321 -34.296208 -12.771931 9.812284 -1.011586 -77.610127 0.041067 -12.932187 -0.033618 0.024697 0.042733 0.179302 0.000000 0.000000 0.000000 0.000000 0.000000 0.000000 0.000000 22.538334 -3.333443 0.944550 68.437010 -0.551989 -15.323707 3.767461 15.654446 0.012723 3.386637 8.212536 0.241675 0.055373 -0.069632 -0.000000 0.000000 0.000000 0.000000 0.000000 0.000000 0.000000 
2.970476 16.647529 -1.795609 -163.711100 80.640882 -145.171835 11.610288 -2.221471 2.794412 1.030552 -2.894731 -2.101542 -8.596118 -2.853323 1.506596 10.380198 -3.648966 -5.064775 -5.038213 -0.380502 0.510777 0.000000 0.000000 0.000000 -1.411396 7.722490 2.770182 -35.395277 -12.411309 10.950438 -1.090310 -76.863300 0.039550 -13.045722 0.031939 0.016442 0.037926 0.170451 0.000000 0.000000 0.000000 0.000000 0.000000 0.000000 0.000000 22.493229 -2.932278 0.970439 68.088445 0.487188 -15.116185 3.759946 15.473964 0.012743 3.370271 8.229750 0.241175 0.054711 -0.071621 -0.000000 0.000000 0.000000 0.000000 0.000000 0.000000 0.000000 
3.151752 16.688086 -1.806950 -165.932576 79.843552 -147.329765 11.491232 -2.177114 2.741867 1.015093 -2.845595 -2.136297 -8.544278 -2.813389 1.436339 10.363084 -3.229605 -4.870751 -5.036316 -0.381072 0.563318 0.000000 0.000000 0.000000 -1.533298 7.421075 2.811418 -36.508749 -12.061423 12.130167 -1.181294 -75.978742 0.037879 -13.175534 0.112170 0.006190 0.032746 0.160875 0.000000 0.000000 0.000000 0.000000 0.000000 0.000000 0.000000 22.409091 -2.527704 0.997994 67.737233 1.503075 -14.828911 3.753024 15.404819 0.012835 3.376271 8.255371 0.242379 0.054121 -0.074002 -0.000000 0.000000 0.000000 0.000000 0.000000 0.000000 0.000000 
3.330494 16.732692 -1.819801 -168.135619 79.046809 -149.438542 11.305045 -2.126809 2.665753 0.988904 -2.787983 -2.175700 -8.481346 -2.765281 1.365110 10.314065 -2.818552 -4.684828 -5.027960 -0.381235 0.613867 0.000000 0.000000 0.000000 -1.684657 7.114008 2.857551 -37.644458 -11.728720 13.330228 -1.285517 -74.947960 0.036069 -13.317593 0.204987 -0.005661 0.027120 0.150785 0.000000 0.000000 0.000000 0.000000 0.000000 0.000000 0.000000 22.276504 -2.118943 1.027024 67.377678 2.487026 -14.436277 3.747408 15.466915 0.013004 3.408848 8.288644 0.245884 0.053615 -0.076728 -0.000000 0.000000 0.000000 0.000000 0.000000 0.000000 0.000000 
3.506580 16.781170 -1.834836 -170.244141 78.262141 -151.432944 11.064731 -2.067417 2.580841 0.954442 -2.718480 -2.216945 -8.405937 -2.705581 1.292981 10.230936 -2.418975 -4.508744 -5.012495 -0.380923 0.661731 0.000000 0.000000 0.000000 -1.868497 6.810479 2.906622 -38.808483 -11.420267 14.530190 -1.403510 -73.764547 0.034148 -13.466531 0.308205 -0.019110 0.021015 0.140400 0.000000 0.000000 0.000000 0.000000 0.000000 0.000000 0.000000 22.089045 -1.707003 1.057339 67.002696 3.433443 -13.913492 3.743664 15.675613 0.013256 3.471704 8.327834 0.251791 0.053194 -0.079735 -0.000000 0.000000 0.000000 0.000000 0.000000 0.000000 0.000000 
3.679858 16.833108 -1.852525 -172.201936 77.500811 -153.270558 10.783536 -1.996465 2.503593 0.914047 -2.634293 -2.256146 -8.317504 -2.631300 1.222630 10.114741 -2.038586 -4.346702 -4.989355 -0.380044 0.705509 0.000000 0.000000 0.000000 -2.086754 6.529044 2.956190 -40.002666 -11.157695 15.716125 -1.535819 -72.419110 0.032136 -13.615296 0.418472 -0.033760 0.014381 0.129965 0.000000 0.000000 0.000000 0.000000 0.000000 0.000000 0.000000 21.845169 -1.298091 1.087840 66.603621 4.345515 -13.234280 3.742145 16.039346 0.013590 3.565740 8.371127 0.260200 0.052861 -0.082936 -0.000000 0.000000 0.000000 0.000000 0.000000 0.000000 0.000000 
3.850232 16.888095 -1.873120 -173.970989 76.772989 -154.929838 10.473937 -1.912029 2.449593 0.869716 -2.533211 -2.291842 -8.216151 -2.540437 1.148463 9.967669 -1.673868 -4.192984 -4.958954 -0.378673 0.746689 0.000000 0.000000 0.000000 -2.335182 6.248174 3.004426 -41.230025 -10.900626 16.859527 -1.679637 -70.932505 0.030036 -13.759981 0.536762 -0.049612 0.007424 0.119558 0.000000 0.000000 0.000000 0.000000 0.000000 0.000000 0.000000 21.544663 -0.888982 1.120854 66.174341 5.210301 -12.399493 3.742430 16.566278 0.013999 3.696588 8.412394 0.271310 0.052546 -0.086258 -0.000000 0.000000 0.000000 0.000000 0.000000 0.000000 0.000000 
